<mxfile host="Electron" modified="2023-10-02T09:53:59.457Z" agent="Mozilla/5.0 (Windows NT 10.0; Win64; x64) AppleWebKit/537.36 (KHTML, like Gecko) draw.io/21.8.2 Chrome/114.0.5735.289 Electron/25.8.1 Safari/537.36" etag="F8WB35GA_vZ12tcNESoQ" version="21.8.2" type="device">
  <diagram id="C5RBs43oDa-KdzZeNtuy" name="Page-1">
    <mxGraphModel dx="1120" dy="532" grid="1" gridSize="10" guides="1" tooltips="1" connect="1" arrows="1" fold="1" page="1" pageScale="1" pageWidth="827" pageHeight="1169" math="0" shadow="0">
      <root>
        <mxCell id="WIyWlLk6GJQsqaUBKTNV-0" />
        <mxCell id="WIyWlLk6GJQsqaUBKTNV-1" parent="WIyWlLk6GJQsqaUBKTNV-0" />
        <mxCell id="F2Xbn5ZQXu3LaTs7gisH-17" value="" style="edgeStyle=orthogonalEdgeStyle;rounded=0;orthogonalLoop=1;jettySize=auto;html=1;" edge="1" parent="WIyWlLk6GJQsqaUBKTNV-1" source="F2Xbn5ZQXu3LaTs7gisH-0" target="F2Xbn5ZQXu3LaTs7gisH-2">
          <mxGeometry relative="1" as="geometry" />
        </mxCell>
        <mxCell id="F2Xbn5ZQXu3LaTs7gisH-0" value="Start" style="ellipse;whiteSpace=wrap;html=1;" vertex="1" parent="WIyWlLk6GJQsqaUBKTNV-1">
          <mxGeometry x="354" y="60" width="120" height="80" as="geometry" />
        </mxCell>
        <mxCell id="F2Xbn5ZQXu3LaTs7gisH-4" value="" style="edgeStyle=orthogonalEdgeStyle;rounded=0;orthogonalLoop=1;jettySize=auto;html=1;" edge="1" parent="WIyWlLk6GJQsqaUBKTNV-1" source="F2Xbn5ZQXu3LaTs7gisH-2" target="F2Xbn5ZQXu3LaTs7gisH-3">
          <mxGeometry relative="1" as="geometry" />
        </mxCell>
        <mxCell id="F2Xbn5ZQXu3LaTs7gisH-2" value="int menu, nom_tarik, nom_transfer, saldo_awal, saldo_akhir&lt;br&gt;String no_rek_tujuan" style="shape=hexagon;perimeter=hexagonPerimeter2;whiteSpace=wrap;html=1;fixedSize=1;" vertex="1" parent="WIyWlLk6GJQsqaUBKTNV-1">
          <mxGeometry x="336" y="160" width="156" height="80" as="geometry" />
        </mxCell>
        <mxCell id="F2Xbn5ZQXu3LaTs7gisH-6" value="" style="edgeStyle=orthogonalEdgeStyle;rounded=0;orthogonalLoop=1;jettySize=auto;html=1;" edge="1" parent="WIyWlLk6GJQsqaUBKTNV-1" source="F2Xbn5ZQXu3LaTs7gisH-3" target="F2Xbn5ZQXu3LaTs7gisH-5">
          <mxGeometry relative="1" as="geometry" />
        </mxCell>
        <mxCell id="F2Xbn5ZQXu3LaTs7gisH-3" value="menu" style="shape=parallelogram;perimeter=parallelogramPerimeter;whiteSpace=wrap;html=1;fixedSize=1;" vertex="1" parent="WIyWlLk6GJQsqaUBKTNV-1">
          <mxGeometry x="334" y="270" width="160" height="60" as="geometry" />
        </mxCell>
        <mxCell id="F2Xbn5ZQXu3LaTs7gisH-8" value="" style="edgeStyle=orthogonalEdgeStyle;rounded=0;orthogonalLoop=1;jettySize=auto;html=1;" edge="1" parent="WIyWlLk6GJQsqaUBKTNV-1" source="F2Xbn5ZQXu3LaTs7gisH-5" target="F2Xbn5ZQXu3LaTs7gisH-7">
          <mxGeometry relative="1" as="geometry" />
        </mxCell>
        <mxCell id="F2Xbn5ZQXu3LaTs7gisH-14" value="" style="edgeStyle=orthogonalEdgeStyle;rounded=0;orthogonalLoop=1;jettySize=auto;html=1;" edge="1" parent="WIyWlLk6GJQsqaUBKTNV-1" source="F2Xbn5ZQXu3LaTs7gisH-5" target="F2Xbn5ZQXu3LaTs7gisH-13">
          <mxGeometry relative="1" as="geometry" />
        </mxCell>
        <mxCell id="F2Xbn5ZQXu3LaTs7gisH-5" value="menu = 1" style="rhombus;whiteSpace=wrap;html=1;" vertex="1" parent="WIyWlLk6GJQsqaUBKTNV-1">
          <mxGeometry x="324" y="360" width="180" height="100" as="geometry" />
        </mxCell>
        <mxCell id="F2Xbn5ZQXu3LaTs7gisH-10" value="" style="edgeStyle=orthogonalEdgeStyle;rounded=0;orthogonalLoop=1;jettySize=auto;html=1;" edge="1" parent="WIyWlLk6GJQsqaUBKTNV-1" source="F2Xbn5ZQXu3LaTs7gisH-7" target="F2Xbn5ZQXu3LaTs7gisH-9">
          <mxGeometry relative="1" as="geometry" />
        </mxCell>
        <mxCell id="F2Xbn5ZQXu3LaTs7gisH-30" value="" style="edgeStyle=orthogonalEdgeStyle;rounded=0;orthogonalLoop=1;jettySize=auto;html=1;" edge="1" parent="WIyWlLk6GJQsqaUBKTNV-1" source="F2Xbn5ZQXu3LaTs7gisH-7" target="F2Xbn5ZQXu3LaTs7gisH-28">
          <mxGeometry relative="1" as="geometry" />
        </mxCell>
        <mxCell id="F2Xbn5ZQXu3LaTs7gisH-7" value="menu = 2" style="rhombus;whiteSpace=wrap;html=1;" vertex="1" parent="WIyWlLk6GJQsqaUBKTNV-1">
          <mxGeometry x="540" y="365" width="176" height="90" as="geometry" />
        </mxCell>
        <mxCell id="F2Xbn5ZQXu3LaTs7gisH-12" value="" style="edgeStyle=orthogonalEdgeStyle;rounded=0;orthogonalLoop=1;jettySize=auto;html=1;" edge="1" parent="WIyWlLk6GJQsqaUBKTNV-1" source="F2Xbn5ZQXu3LaTs7gisH-9" target="F2Xbn5ZQXu3LaTs7gisH-11">
          <mxGeometry relative="1" as="geometry" />
        </mxCell>
        <mxCell id="F2Xbn5ZQXu3LaTs7gisH-32" value="" style="edgeStyle=orthogonalEdgeStyle;rounded=0;orthogonalLoop=1;jettySize=auto;html=1;" edge="1" parent="WIyWlLk6GJQsqaUBKTNV-1" source="F2Xbn5ZQXu3LaTs7gisH-9" target="F2Xbn5ZQXu3LaTs7gisH-31">
          <mxGeometry relative="1" as="geometry" />
        </mxCell>
        <mxCell id="F2Xbn5ZQXu3LaTs7gisH-9" value="menu = 3" style="rhombus;whiteSpace=wrap;html=1;" vertex="1" parent="WIyWlLk6GJQsqaUBKTNV-1">
          <mxGeometry x="750" y="365" width="184" height="90" as="geometry" />
        </mxCell>
        <mxCell id="F2Xbn5ZQXu3LaTs7gisH-11" value="Menu invalid" style="shape=parallelogram;perimeter=parallelogramPerimeter;whiteSpace=wrap;html=1;fixedSize=1;" vertex="1" parent="WIyWlLk6GJQsqaUBKTNV-1">
          <mxGeometry x="960" y="377.5" width="180" height="65" as="geometry" />
        </mxCell>
        <mxCell id="F2Xbn5ZQXu3LaTs7gisH-16" value="" style="edgeStyle=orthogonalEdgeStyle;rounded=0;orthogonalLoop=1;jettySize=auto;html=1;" edge="1" parent="WIyWlLk6GJQsqaUBKTNV-1" source="F2Xbn5ZQXu3LaTs7gisH-13" target="F2Xbn5ZQXu3LaTs7gisH-15">
          <mxGeometry relative="1" as="geometry" />
        </mxCell>
        <mxCell id="F2Xbn5ZQXu3LaTs7gisH-13" value="Anda memilih menu transfer" style="shape=parallelogram;perimeter=parallelogramPerimeter;whiteSpace=wrap;html=1;fixedSize=1;" vertex="1" parent="WIyWlLk6GJQsqaUBKTNV-1">
          <mxGeometry x="324" y="480" width="179" height="70" as="geometry" />
        </mxCell>
        <mxCell id="F2Xbn5ZQXu3LaTs7gisH-19" value="" style="edgeStyle=orthogonalEdgeStyle;rounded=0;orthogonalLoop=1;jettySize=auto;html=1;" edge="1" parent="WIyWlLk6GJQsqaUBKTNV-1" source="F2Xbn5ZQXu3LaTs7gisH-15" target="F2Xbn5ZQXu3LaTs7gisH-18">
          <mxGeometry relative="1" as="geometry" />
        </mxCell>
        <mxCell id="F2Xbn5ZQXu3LaTs7gisH-15" value="no_rek_tujuan, nom_transfer" style="shape=parallelogram;perimeter=parallelogramPerimeter;whiteSpace=wrap;html=1;fixedSize=1;" vertex="1" parent="WIyWlLk6GJQsqaUBKTNV-1">
          <mxGeometry x="324" y="580" width="179" height="70" as="geometry" />
        </mxCell>
        <mxCell id="F2Xbn5ZQXu3LaTs7gisH-22" value="" style="edgeStyle=orthogonalEdgeStyle;rounded=0;orthogonalLoop=1;jettySize=auto;html=1;" edge="1" parent="WIyWlLk6GJQsqaUBKTNV-1" source="F2Xbn5ZQXu3LaTs7gisH-18" target="F2Xbn5ZQXu3LaTs7gisH-20">
          <mxGeometry relative="1" as="geometry" />
        </mxCell>
        <mxCell id="F2Xbn5ZQXu3LaTs7gisH-18" value="if nom_transfer &amp;gt; saldo_awal" style="rhombus;whiteSpace=wrap;html=1;" vertex="1" parent="WIyWlLk6GJQsqaUBKTNV-1">
          <mxGeometry x="313" y="670" width="201" height="100" as="geometry" />
        </mxCell>
        <mxCell id="F2Xbn5ZQXu3LaTs7gisH-24" value="" style="edgeStyle=orthogonalEdgeStyle;rounded=0;orthogonalLoop=1;jettySize=auto;html=1;" edge="1" parent="WIyWlLk6GJQsqaUBKTNV-1" source="F2Xbn5ZQXu3LaTs7gisH-20" target="F2Xbn5ZQXu3LaTs7gisH-23">
          <mxGeometry relative="1" as="geometry" />
        </mxCell>
        <mxCell id="F2Xbn5ZQXu3LaTs7gisH-20" value="saldo_awal - nom_transfer" style="rounded=0;whiteSpace=wrap;html=1;" vertex="1" parent="WIyWlLk6GJQsqaUBKTNV-1">
          <mxGeometry x="324" y="810" width="180" height="60" as="geometry" />
        </mxCell>
        <mxCell id="F2Xbn5ZQXu3LaTs7gisH-26" value="" style="edgeStyle=orthogonalEdgeStyle;rounded=0;orthogonalLoop=1;jettySize=auto;html=1;" edge="1" parent="WIyWlLk6GJQsqaUBKTNV-1" source="F2Xbn5ZQXu3LaTs7gisH-23" target="F2Xbn5ZQXu3LaTs7gisH-25">
          <mxGeometry relative="1" as="geometry" />
        </mxCell>
        <mxCell id="F2Xbn5ZQXu3LaTs7gisH-23" value="Transaksi anda telah berhasil, sisa saldo = saldo_akhir" style="shape=parallelogram;perimeter=parallelogramPerimeter;whiteSpace=wrap;html=1;fixedSize=1;" vertex="1" parent="WIyWlLk6GJQsqaUBKTNV-1">
          <mxGeometry x="325" y="910" width="179" height="70" as="geometry" />
        </mxCell>
        <mxCell id="F2Xbn5ZQXu3LaTs7gisH-25" value="End" style="ellipse;whiteSpace=wrap;html=1;" vertex="1" parent="WIyWlLk6GJQsqaUBKTNV-1">
          <mxGeometry x="355" y="1020" width="120" height="80" as="geometry" />
        </mxCell>
        <mxCell id="F2Xbn5ZQXu3LaTs7gisH-27" value="" style="endArrow=classic;html=1;rounded=0;exitX=0;exitY=0.5;exitDx=0;exitDy=0;entryX=0;entryY=0.5;entryDx=0;entryDy=0;" edge="1" parent="WIyWlLk6GJQsqaUBKTNV-1" source="F2Xbn5ZQXu3LaTs7gisH-18" target="F2Xbn5ZQXu3LaTs7gisH-25">
          <mxGeometry width="50" height="50" relative="1" as="geometry">
            <mxPoint x="740" y="700" as="sourcePoint" />
            <mxPoint x="320" y="890" as="targetPoint" />
            <Array as="points">
              <mxPoint x="260" y="720" />
              <mxPoint x="260" y="1060" />
            </Array>
          </mxGeometry>
        </mxCell>
        <mxCell id="F2Xbn5ZQXu3LaTs7gisH-28" value="Anda memilih menu tarik tunai" style="shape=parallelogram;perimeter=parallelogramPerimeter;whiteSpace=wrap;html=1;fixedSize=1;" vertex="1" parent="WIyWlLk6GJQsqaUBKTNV-1">
          <mxGeometry x="538.5" y="480" width="179" height="70" as="geometry" />
        </mxCell>
        <mxCell id="F2Xbn5ZQXu3LaTs7gisH-31" value="Anda memilih menu cek saldo,&lt;br&gt;sisa saldo = saldo_akhir" style="shape=parallelogram;perimeter=parallelogramPerimeter;whiteSpace=wrap;html=1;fixedSize=1;" vertex="1" parent="WIyWlLk6GJQsqaUBKTNV-1">
          <mxGeometry x="752.5" y="480" width="179" height="70" as="geometry" />
        </mxCell>
        <mxCell id="F2Xbn5ZQXu3LaTs7gisH-33" value="" style="endArrow=classic;html=1;rounded=0;exitX=0.427;exitY=1.029;exitDx=0;exitDy=0;exitPerimeter=0;entryX=0.983;entryY=0.613;entryDx=0;entryDy=0;entryPerimeter=0;" edge="1" parent="WIyWlLk6GJQsqaUBKTNV-1" source="F2Xbn5ZQXu3LaTs7gisH-31" target="F2Xbn5ZQXu3LaTs7gisH-25">
          <mxGeometry width="50" height="50" relative="1" as="geometry">
            <mxPoint x="740" y="600" as="sourcePoint" />
            <mxPoint x="760" y="680" as="targetPoint" />
            <Array as="points">
              <mxPoint x="829" y="1070" />
            </Array>
          </mxGeometry>
        </mxCell>
        <mxCell id="F2Xbn5ZQXu3LaTs7gisH-34" value="" style="endArrow=classic;html=1;rounded=0;exitX=0.5;exitY=1;exitDx=0;exitDy=0;entryX=1.025;entryY=0.388;entryDx=0;entryDy=0;entryPerimeter=0;" edge="1" parent="WIyWlLk6GJQsqaUBKTNV-1" source="F2Xbn5ZQXu3LaTs7gisH-28" target="F2Xbn5ZQXu3LaTs7gisH-25">
          <mxGeometry width="50" height="50" relative="1" as="geometry">
            <mxPoint x="620" y="550" as="sourcePoint" />
            <mxPoint x="600" y="840" as="targetPoint" />
            <Array as="points">
              <mxPoint x="630" y="1051" />
            </Array>
          </mxGeometry>
        </mxCell>
        <mxCell id="F2Xbn5ZQXu3LaTs7gisH-35" value="" style="endArrow=classic;html=1;rounded=0;exitX=0.444;exitY=1.008;exitDx=0;exitDy=0;exitPerimeter=0;entryX=0.95;entryY=0.838;entryDx=0;entryDy=0;entryPerimeter=0;" edge="1" parent="WIyWlLk6GJQsqaUBKTNV-1" source="F2Xbn5ZQXu3LaTs7gisH-11" target="F2Xbn5ZQXu3LaTs7gisH-25">
          <mxGeometry width="50" height="50" relative="1" as="geometry">
            <mxPoint x="936" y="540" as="sourcePoint" />
            <mxPoint x="580" y="1057" as="targetPoint" />
            <Array as="points">
              <mxPoint x="1040" y="1090" />
            </Array>
          </mxGeometry>
        </mxCell>
      </root>
    </mxGraphModel>
  </diagram>
</mxfile>
